<svg width="96" height="96" viewBox="0 0 96 96" fill="none" xmlns="http://www.w3.org/2000/svg" role="img" aria-label="IngéMentor">
  <defs>
    <linearGradient id="imx-grad" x1="0" y1="0" x2="96" y2="96" gradientUnits="userSpaceOnUse">
      <stop offset="0" stop-color="#6366F1"/>
      <stop offset="0.55" stop-color="#7C3AED"/>
      <stop offset="1" stop-color="#A855F7"/>
    </linearGradient>
    <linearGradient id="imx-shine" x1="0" y1="0" x2="48" y2="48" gradientUnits="userSpaceOnUse">
      <stop offset="0" stop-color="#ffffff" stop-opacity="0.28"/>
      <stop offset="1" stop-color="#ffffff" stop-opacity="0"/>
    </linearGradient>
  </defs>

  <rect x="0" y="0" width="96" height="96" rx="26" fill="url(#imx-grad)"/>
  <rect x="0" y="0" width="96" height="52" rx="26" fill="url(#imx-shine)"/>

  <path d="M48 27 L76 42 L48 57 L20 42 Z" fill="#ffffff"/>
  <path d="M34 47 L34 58 C34 63.5 40.4 67 48 67 C55.6 67 62 63.5 62 58 L62 47 L48 54.5 Z" fill="#ffffff"/>
  <circle cx="48" cy="42" r="4" fill="url(#imx-grad)"/>

  <path d="M48 42 L73 42 L73 60" stroke="#ffffff" stroke-width="3.2" stroke-linecap="round" stroke-linejoin="round" fill="none"/>
  <circle cx="73" cy="63" r="4" fill="#ffffff"/>
</svg>
